<svg width="48" height="48" viewBox="0 0 48 48" fill="none" xmlns="http://www.w3.org/2000/svg">
<path d="M42.274 23.0379L36.822 21.4799C34.3668 20.7877 32.1304 19.477 30.3266 17.6733C28.5229 15.8695 27.2122 13.6331 26.52 11.1779L24.962 5.72589C24.8836 5.53514 24.7504 5.37199 24.5791 5.25718C24.4078 5.14236 24.2062 5.08105 24 5.08105C23.7938 5.08105 23.5922 5.14236 23.4209 5.25718C23.2496 5.37199 23.1164 5.53514 23.038 5.72589L21.48 11.1779C20.7878 13.6331 19.4771 15.8695 17.6734 17.6733C15.8696 19.477 13.6332 20.7877 11.178 21.4799L5.726 23.0379C5.51666 23.0973 5.33241 23.2234 5.20122 23.397C5.07003 23.5706 4.99905 23.7823 4.99905 23.9999C4.99905 24.2175 5.07003 24.4292 5.20122 24.6028C5.33241 24.7764 5.51666 24.9025 5.726 24.9619L11.178 26.5199C13.6332 27.2121 15.8696 28.5227 17.6734 30.3265C19.4771 32.1302 20.7878 34.3667 21.48 36.8219L23.038 42.2739C23.0974 42.4832 23.2235 42.6675 23.3971 42.7987C23.5707 42.9299 23.7824 43.0008 24 43.0008C24.2176 43.0008 24.4293 42.9299 24.6029 42.7987C24.7765 42.6675 24.9026 42.4832 24.962 42.2739L26.52 36.8219C27.2122 34.3667 28.5229 32.1302 30.3266 30.3265C32.1304 28.5227 34.3668 27.2121 36.822 26.5199L42.274 24.9619C42.4833 24.9025 42.6676 24.7764 42.7988 24.6028C42.93 24.4292 43.0009 24.2175 43.0009 23.9999C43.0009 23.7823 42.93 23.5706 42.7988 23.397C42.6676 23.2234 42.4833 23.0973 42.274 23.0379Z" fill="white"/>
</svg>
